<?xml version="1.0" encoding="UTF-8"?>
<svg id="Layer_1" data-name="Layer 1" xmlns="http://www.w3.org/2000/svg" viewBox="0 0 1600 1080">
  <defs>
    <style>
      .cls-1 {
        fill: none;
      }

      .cls-2 {
        fill: #0a9e88;
      }

      .cls-3 {
        fill: #293a48;
      }
    </style>
  </defs>
  <line class="cls-3" x1="1339.75" y1="678.05" x2="1337.08" y2="682.23"/>
  <path class="cls-3" d="m289.55,732.63c-20.65,0-37.71-6.86-51.16-20.58-13.46-13.72-20.19-30.65-20.19-50.77s6.73-37.21,20.19-50.87c13.46-13.66,30.51-20.48,51.16-20.48,12.41,0,23.88,2.91,34.4,8.72,10.52,5.82,18.72,13.69,24.6,23.62l-23.33,13.53c-3.4-6.14-8.23-10.95-14.51-14.41-6.27-3.46-13.33-5.19-21.17-5.19-13.33,0-24.08,4.18-32.25,12.55-8.17,8.36-12.25,19.21-12.25,32.54s4.08,23.98,12.25,32.34c8.16,8.37,18.92,12.55,32.25,12.55,7.84,0,14.93-1.73,21.27-5.2,6.34-3.46,11.14-8.2,14.41-14.21l23.33,13.52c-5.88,9.94-14.05,17.81-24.5,23.62-10.46,5.82-21.95,8.72-34.5,8.72Z"/>
  <path class="cls-3" d="m439.12,631.88h25.29v98.01h-25.29v-11.57c-7.58,9.54-18.23,14.31-31.95,14.31s-24.27-5-33.62-15c-9.35-10-14.02-22.25-14.02-36.75s4.67-26.76,14.02-36.75c9.34-10,20.55-15,33.62-15,13.72,0,24.37,4.77,31.95,14.31v-11.57Zm-46.66,68.9c5.1,5.16,11.57,7.74,19.41,7.74s14.34-2.58,19.5-7.74c5.16-5.16,7.74-11.79,7.74-19.9s-2.58-14.73-7.74-19.9c-5.16-5.16-11.66-7.74-19.5-7.74s-14.31,2.58-19.41,7.74c-5.1,5.16-7.64,11.8-7.64,19.9s2.55,14.73,7.64,19.9Z"/>
  <path class="cls-3" d="m544.39,629.13c13.2,0,24.47,5,33.81,15,9.34,10,14.02,22.25,14.02,36.75s-4.68,26.76-14.02,36.75c-9.34,10-20.62,15-33.81,15s-24.31-4.77-31.76-14.31v50.77h-25.28v-137.22h25.28v11.57c7.45-9.54,18.04-14.31,31.76-14.31Zm-24.11,71.65c5.1,5.16,11.57,7.74,19.41,7.74s14.34-2.58,19.5-7.74c5.16-5.16,7.75-11.79,7.75-19.9s-2.58-14.73-7.75-19.9c-5.16-5.16-11.66-7.74-19.5-7.74s-14.31,2.58-19.41,7.74c-5.1,5.16-7.65,11.8-7.65,19.9s2.55,14.73,7.65,19.9Z"/>
  <path class="cls-3" d="m663.97,656.18h-22.15v40.78c0,3.4.85,5.88,2.55,7.45,1.69,1.57,4.18,2.45,7.45,2.64,3.26.19,7.32.17,12.15-.1v22.94c-17.38,1.96-29.63.33-36.75-4.9-7.12-5.23-10.69-14.57-10.69-28.03v-40.78h-17.05v-24.31h17.05v-19.8l25.29-7.64v27.44h22.15v24.31Z"/>
  <path class="cls-3" d="m748.06,631.88h25.29v98.01h-25.29v-10.98c-6.14,9.15-15.88,13.72-29.21,13.72-10.72,0-19.57-3.59-26.56-10.78-6.99-7.19-10.48-17.12-10.48-29.8v-60.18h25.28v57.04c0,6.53,1.76,11.53,5.29,15,3.53,3.46,8.23,5.19,14.11,5.19,6.53,0,11.76-2.02,15.68-6.08,3.92-4.05,5.88-10.12,5.88-18.23v-52.93Z"/>
  <path class="cls-3" d="m821.76,648.74c2.35-6.27,6.24-10.98,11.66-14.11,5.42-3.14,11.47-4.71,18.13-4.71v28.23c-7.71-.91-14.6.65-20.68,4.7-6.07,4.05-9.12,10.78-9.12,20.19v46.85h-25.28v-98.01h25.28v16.86Z"/>
  <path class="cls-3" d="m883.9,691.27c3.39,12.29,12.61,18.43,27.64,18.43,9.67,0,16.99-3.26,21.96-9.8l20.39,11.76c-9.67,13.98-23.92,20.97-42.73,20.97-16.21,0-29.21-4.9-39.01-14.7-9.8-9.8-14.7-22.15-14.7-37.05s4.83-27.08,14.51-36.95c9.67-9.87,22.08-14.8,37.24-14.8,14.37,0,26.24,4.97,35.58,14.9,9.34,9.93,14.02,22.22,14.02,36.85,0,3.27-.33,6.73-.98,10.39h-73.9Zm-.4-19.6h49.99c-1.44-6.67-4.41-11.63-8.92-14.9-4.51-3.27-9.64-4.9-15.39-4.9-6.8,0-12.41,1.73-16.86,5.19-4.45,3.46-7.39,8.33-8.83,14.6Z"/>
  <path class="cls-2" d="m1062.87,631.88h12.93v98.01h-12.93v-19.21c-9.02,14.38-22.22,21.56-39.6,21.56-13.98,0-25.91-4.96-35.77-14.9-9.87-9.93-14.8-22.08-14.8-36.46s4.93-26.53,14.8-36.46c9.87-9.93,21.79-14.9,35.77-14.9,17.38,0,30.58,7.19,39.6,21.56v-19.21Zm-66.06,76.55c7.45,7.52,16.6,11.27,27.44,11.27s19.99-3.76,27.44-11.27c7.45-7.51,11.17-16.69,11.17-27.54s-3.73-20.03-11.17-27.54c-7.45-7.51-16.6-11.27-27.44-11.27s-20,3.76-27.44,11.27c-7.45,7.52-11.17,16.7-11.17,27.54s3.73,20.03,11.17,27.54Z"/>
  <path class="cls-3" d="m1155.2,644.42h-28.22v59.39c0,5.36,1.04,9.18,3.13,11.47,2.09,2.29,5.23,3.46,9.41,3.53,4.18.07,9.41-.03,15.68-.29v11.37c-13.72,2.09-24.01,1.11-30.87-2.94-6.86-4.05-10.29-11.76-10.29-23.13v-59.39h-20.58v-12.55h20.58v-23.52l12.94-3.92v27.44h28.22v12.55Z"/>
  <path class="cls-3" d="m1189.7,648.15c6.01-11.89,16.34-17.84,30.97-17.84v12.55c-8.89,0-16.27,2.62-22.15,7.84-5.88,5.23-8.83,13.46-8.83,24.7v54.5h-12.93v-98.01h12.93v16.27Z"/>
  <path class="cls-3" d="m1251.45,608.35c-1.83,1.83-4.05,2.74-6.67,2.74s-4.84-.91-6.66-2.74c-1.83-1.83-2.74-4.05-2.74-6.67s.91-4.83,2.74-6.67c1.82-1.83,4.05-2.74,6.66-2.74s4.84.92,6.67,2.74c1.82,1.83,2.74,4.05,2.74,6.67s-.92,4.84-2.74,6.67Zm-13.13,121.54v-98.01h12.93v98.01h-12.93Z"/>
  <path class="cls-3" d="m1331.23,629.52c13.98,0,25.9,4.97,35.77,14.9,9.87,9.93,14.8,22.08,14.8,36.46s-4.93,26.53-14.8,36.46c-9.87,9.93-21.79,14.9-35.77,14.9-17.38,0-30.58-7.19-39.6-21.56v58.42h-12.93v-137.22h12.93v19.21c9.02-14.37,22.22-21.56,39.6-21.56Zm-28.43,78.9c7.45,7.52,16.6,11.27,27.44,11.27s19.99-3.76,27.44-11.27c7.45-7.51,11.17-16.69,11.17-27.54s-3.73-20.03-11.17-27.54c-7.45-7.51-16.6-11.27-27.44-11.27s-19.99,3.76-27.44,11.27c-7.45,7.52-11.17,16.7-11.17,27.54s3.73,20.03,11.17,27.54Z"/>
  <polygon class="cls-3" points="972.45 507.9 948.4 508.03 844.35 331.88 815.69 331.88 771.87 376.78 804.36 310.91 923.6 310.91 923.6 331.88 868.74 331.88 972.45 507.9"/>
  <polygon class="cls-3" points="876.97 529.47 612.73 529.47 710.83 334.69 762.27 391.44 762.27 391.46 754.51 406.8 751.89 411.99 729.86 455.76 703.3 508.49 862.71 508.49 876.97 529.47"/>
  <path class="cls-2" d="m996.24,547.95h-74.22l-12.35.42-60.4-100.73s0,.04-.04.07l-10.62-19.39s-6.55,51.7-42.7,60.97h-26.89l-35.93-.04,42.63-50.65,14.05-16.76,40.07-47.75,92.9,155.37h62.59l10.92,18.49Z"/>
  <line class="cls-1" x1="1339.75" y1="642.2" x2="1337.08" y2="646.38"/>
</svg>